<?xml version="1.0" standalone="no"?>
<!DOCTYPE svg PUBLIC "-//W3C//DTD SVG 20010904//EN"
 "http://www.w3.org/TR/2001/REC-SVG-20010904/DTD/svg10.dtd">
<svg version="1.0" xmlns="http://www.w3.org/2000/svg"
 width="500.000000pt" height="500.000000pt" viewBox="0 0 500.000000 500.000000"
 preserveAspectRatio="xMidYMid meet">
<metadata>
Created by potrace 1.14, written by Peter Selinger 2001-2017
</metadata>
<g transform="translate(0.000000,500.000000) scale(0.100000,-0.100000)"
fill="#000000" stroke="none">
<path d="M0 2500 l0 -2500 2500 0 2500 0 0 2500 0 2500 -2500 0 -2500 0 0
-2500z m3153 1444 c28 -24 37 -26 89 -20 34 3 69 1 83 -6 19 -9 30 -6 61 13
l38 23 -28 -36 c-23 -30 -26 -40 -16 -57 6 -12 17 -21 25 -21 12 0 15 -17 15
-83 0 -51 5 -88 12 -95 9 -9 9 -12 0 -12 -9 0 -12 -40 -12 -150 l0 -150 -103
0 -103 0 0 83 c0 45 -1 110 -2 144 l-2 63 -712 -3 -713 -2 -3 -142 -3 -143
-99 0 -100 0 0 245 0 245 795 0 795 0 -2 30 c-1 17 -15 46 -31 65 -34 41 -27
45 16 9z m-1643 -144 l0 -29 -97 -3 -98 -3 -3 -67 -3 -68 -39 0 -40 0 0 93 c0
52 2 96 5 99 3 3 66 6 140 7 l135 1 0 -30z m2260 -70 l0 -100 -40 0 -39 0 -3
68 -3 67 -95 0 -95 0 -3 33 -3 32 140 0 141 0 0 -100z m-2460 -270 l0 -100
-40 0 -40 0 0 100 0 100 40 0 40 0 0 -100z m2460 0 l0 -100 -40 0 -40 0 0 100
0 100 40 0 40 0 0 -100z m-1610 -182 c0 -2 -35 -88 -78 -193 l-78 -190 -142
-3 c-78 -1 -142 -1 -142 1 0 2 14 37 30 77 17 40 30 75 30 77 0 2 -35 3 -77 1
l-78 -3 0 -385 0 -385 -127 -3 -128 -3 0 391 0 390 -75 0 c-87 0 -87 0 -50
-84 14 -31 25 -61 25 -66 0 -6 -56 -10 -139 -10 l-138 0 -75 182 c-42 101 -73
188 -71 195 4 10 141 13 659 13 360 0 654 -1 654 -2z m796 -503 c112 -274 204
-501 204 -502 0 -2 -64 -2 -142 -1 l-142 3 -31 77 -30 78 -316 0 -315 0 -33
-80 -33 -80 -139 0 c-77 0 -139 3 -139 6 0 6 399 983 407 997 2 4 117 6 254 5
l250 -3 205 -500z m1198 497 c3 -5 -22 -75 -56 -155 l-61 -147 -140 0 c-135 0
-139 1 -133 20 20 67 50 60 -263 60 -154 0 -281 -4 -281 -8 0 -4 13 -39 29
-77 l30 -70 360 -3 c199 -1 361 -6 361 -10 0 -4 -56 -142 -123 -307 l-124
-300 -253 0 -253 0 -62 153 -62 152 142 0 142 0 16 -40 16 -41 62 3 63 3 28
69 c15 38 28 73 28 77 0 5 -120 10 -266 11 l-266 3 -119 290 c-66 160 -122
298 -125 308 -5 16 30 17 650 17 360 0 657 -4 660 -8z m-3061 -458 c11 -11 -3
-24 -18 -18 -8 4 -12 10 -9 15 6 11 18 12 27 3z m687 -242 c0 -240 -1 -251
-24 -308 l-24 -59 24 -3 c21 -3 24 -9 24 -44 0 -38 6 -46 83 -119 45 -44 81
-86 79 -93 -1 -8 2 -17 8 -21 6 -3 7 0 4 9 -9 24 0 20 47 -20 l44 -36 132 4
c73 3 136 8 140 12 4 3 -1 20 -11 37 l-18 31 23 -7 c18 -5 15 0 -11 17 l-35
23 43 3 c41 3 42 4 42 40 0 116 150 181 242 104 34 -28 58 -77 58 -116 0 -22
5 -25 43 -28 l42 -3 -38 -22 c-22 -14 -55 -23 -80 -24 -56 0 -126 -15 -107
-21 57 -20 131 -37 165 -39 76 -3 78 -5 66 -141 -1 -5 -32 -8 -70 -8 -46 0
-72 -5 -80 -14 -6 -7 -29 -26 -51 -41 l-39 -27 -33 19 c-18 10 -43 28 -55 41
-19 19 -33 22 -92 22 l-70 0 -3 63 -3 62 -90 2 -90 3 26 -23 c14 -12 39 -33
57 -47 26 -21 32 -33 34 -72 2 -25 8 -46 13 -45 6 1 9 -5 7 -13 -2 -8 -1 -12
3 -8 4 4 38 -20 76 -52 38 -33 93 -72 122 -87 52 -26 137 -47 137 -32 0 11 59
29 75 23 8 -4 13 -9 11 -13 -3 -4 3 -7 13 -7 10 0 18 6 18 13 0 7 -4 10 -9 7
-4 -3 -15 -1 -23 4 -12 6 -4 16 39 46 30 20 77 61 105 91 41 43 51 61 51 88 0
40 28 71 56 61 13 -4 15 -3 6 3 -9 7 8 25 65 69 42 32 81 58 85 57 4 -2 7 0 6
5 -1 4 39 47 90 96 87 85 92 91 89 128 l-3 38 103 0 103 0 0 -76 c0 -75 -1
-77 -50 -147 -167 -242 -469 -538 -730 -716 -146 -100 -134 -98 -221 -42 -298
191 -576 455 -783 745 l-56 78 0 79 0 79 60 0 60 0 0 310 0 310 40 0 40 0 0
-248z m1763 -389 c-13 -2 -33 -2 -45 0 -13 2 -3 4 22 4 25 0 35 -2 23 -4z
m-2033 -33 c0 -5 -4 -10 -10 -10 -5 0 -10 5 -10 10 0 6 5 10 10 10 6 0 10 -4
10 -10z"/>
<path d="M1715 3710 c3 -5 8 -10 11 -10 2 0 4 5 4 10 0 6 -5 10 -11 10 -5 0
-7 -4 -4 -10z"/>
<path d="M1866 3708 c3 -5 10 -6 15 -3 13 9 11 12 -6 12 -8 0 -12 -4 -9 -9z"/>
<path d="M1956 3708 c3 -5 10 -6 15 -3 13 9 11 12 -6 12 -8 0 -12 -4 -9 -9z"/>
<path d="M2093 3713 c-15 -5 -17 -23 -4 -23 5 0 11 7 15 15 3 8 4 15 3 14 -1
0 -8 -3 -14 -6z"/>
<path d="M2596 3708 c3 -5 10 -6 15 -3 13 9 11 12 -6 12 -8 0 -12 -4 -9 -9z"/>
<path d="M2761 3717 c2 -1 13 -9 24 -17 19 -14 19 -14 6 3 -7 9 -18 17 -24 17
-6 0 -8 -1 -6 -3z"/>
<path d="M1812 3701 c2 -7 7 -12 11 -12 12 1 9 15 -3 20 -7 2 -11 -2 -8 -8z"/>
<path d="M2881 3696 c-10 -11 -9 -14 1 -12 14 2 23 15 15 22 -2 2 -10 -2 -16
-10z"/>
<path d="M2558 3693 c7 -3 16 -2 19 1 4 3 -2 6 -13 5 -11 0 -14 -3 -6 -6z"/>
<path d="M2200 3679 c0 -5 5 -7 10 -4 6 3 10 8 10 11 0 2 -4 4 -10 4 -5 0 -10
-5 -10 -11z"/>
<path d="M2300 3686 c0 -3 9 -10 20 -16 11 -6 20 -8 20 -6 0 3 -9 10 -20 16
-11 6 -20 8 -20 6z"/>
<path d="M1750 3676 c0 -2 8 -10 18 -17 15 -13 16 -12 3 4 -13 16 -21 21 -21
13z"/>
<path d="M2020 3676 c0 -2 7 -7 16 -10 8 -3 12 -2 9 4 -6 10 -25 14 -25 6z"/>
<path d="M2400 3050 c0 -18 -7 -20 -55 -20 l-55 0 0 -55 c0 -52 -5 -61 -32
-56 -18 3 -6 -28 12 -34 11 -3 20 -15 20 -25 0 -10 -9 -22 -20 -25 -11 -3 -20
-10 -20 -15 0 -5 9 -12 20 -15 11 -4 20 -15 20 -27 0 -11 -8 -22 -20 -25 -11
-3 -20 -12 -20 -19 0 -8 9 -14 20 -14 17 0 20 -7 20 -50 l0 -50 55 0 c48 0 55
-2 55 -20 0 -11 6 -20 14 -20 8 0 18 9 21 20 3 11 15 20 25 20 10 0 22 -9 25
-20 3 -11 10 -20 15 -20 5 0 12 9 15 20 3 11 15 20 25 20 10 0 22 -9 25 -20 3
-11 10 -20 15 -20 5 0 12 9 15 20 5 16 15 20 56 20 l49 0 0 50 c0 43 3 50 20
50 11 0 20 6 20 14 0 8 -9 18 -20 21 -11 3 -20 15 -20 25 0 10 9 22 20 25 11
3 20 10 20 15 0 5 -9 12 -20 15 -11 3 -20 15 -20 25 0 10 9 22 20 25 11 3 20
13 20 21 0 8 -9 14 -20 14 -18 0 -20 7 -20 55 l0 55 -49 0 c-41 0 -51 4 -56
20 -3 11 -10 20 -15 20 -5 0 -12 -9 -15 -20 -3 -11 -15 -20 -25 -20 -10 0 -22
9 -25 20 -3 11 -10 20 -15 20 -5 0 -12 -9 -15 -20 -3 -11 -15 -20 -25 -20 -10
0 -22 9 -25 20 -3 11 -13 20 -21 20 -8 0 -14 -9 -14 -20z m203 -152 c-2 -28 2
-38 12 -38 21 0 19 -20 -2 -21 -17 -1 -17 -2 0 -6 9 -2 17 -9 17 -14 0 -5 -8
-10 -17 -10 -17 -1 -17 -2 0 -6 20 -5 23 -23 3 -23 -9 0 -13 -11 -12 -32 l1
-33 -101 -3 c-83 -2 -103 0 -114 13 -11 13 -11 21 -2 36 10 16 9 19 -3 19 -21
0 -19 20 3 21 16 1 16 2 0 6 -10 2 -18 9 -18 14 0 5 8 10 18 10 16 1 16 2 0 6
-22 5 -24 23 -3 23 17 0 20 21 5 36 -6 6 -8 18 -4 28 6 14 20 16 113 14 l106
-3 -2 -37z"/>
<path d="M2463 2105 c-35 -15 -53 -41 -53 -79 0 -26 0 -26 90 -26 84 0 90 1
90 20 0 37 -28 77 -61 89 -18 6 -32 11 -33 11 -1 -1 -15 -7 -33 -15z"/>
<path d="M3220 2106 c0 -3 9 -10 20 -16 11 -6 20 -8 20 -6 0 3 -9 10 -20 16
-11 6 -20 8 -20 6z"/>
<path d="M1709 2064 c-11 -13 -6 -21 30 -57 24 -23 37 -32 30 -19 -8 12 -18
22 -23 22 -4 0 -2 8 5 18 11 14 11 15 -1 5 -20 -19 -43 3 -29 28 12 23 6 25
-12 3z"/>
<path d="M3246 2005 c-17 -19 -34 -31 -39 -28 -6 4 -7 1 -2 -6 5 -9 18 -2 46
25 22 21 39 39 39 41 0 11 -19 -3 -44 -32z"/>
<path d="M1826 2002 c-3 -5 1 -9 9 -9 8 0 12 4 9 9 -3 4 -7 8 -9 8 -2 0 -6 -4
-9 -8z"/>
<path d="M3136 1988 c3 -4 11 -5 19 -1 21 7 19 12 -4 10 -11 0 -18 -5 -15 -9z"/>
<path d="M1790 1951 c0 -4 14 -20 30 -36 17 -16 30 -26 30 -23 0 4 -13 20 -30
36 -16 17 -30 27 -30 23z"/>
<path d="M1913 1923 c4 -3 1 -13 -6 -22 -11 -14 -10 -14 5 -2 16 12 16 31 1
31 -4 0 -3 -3 0 -7z"/>
<path d="M3170 1920 c-9 -6 -10 -10 -3 -10 6 0 15 5 18 10 8 12 4 12 -15 0z"/>
<path d="M1975 1900 c3 -5 8 -10 11 -10 2 0 4 5 4 10 0 6 -5 10 -11 10 -5 0
-7 -4 -4 -10z"/>
<path d="M3049 1883 c-13 -16 -12 -17 4 -4 9 7 17 15 17 17 0 8 -8 3 -21 -13z"/>
<path d="M3086 1892 c-3 -5 1 -9 9 -9 8 0 12 4 9 9 -3 4 -7 8 -9 8 -2 0 -6 -4
-9 -8z"/>
<path d="M2993 1874 c3 -4 -3 -14 -13 -23 -15 -12 -17 -19 -9 -31 9 -13 10
-12 5 2 -6 19 25 42 40 30 5 -4 2 1 -5 11 -7 9 -16 17 -19 17 -3 0 -3 -3 1 -6z"/>
<path d="M1895 1840 c10 -11 23 -20 28 -20 6 0 1 9 -11 20 -12 11 -24 20 -28
20 -4 0 1 -9 11 -20z"/>
<path d="M1940 1856 c0 -2 7 -9 15 -16 13 -11 14 -10 9 4 -5 14 -24 23 -24 12z"/>
<path d="M2038 1853 c7 -3 16 -2 19 1 4 3 -2 6 -13 5 -11 0 -14 -3 -6 -6z"/>
<path d="M2603 1805 c0 -33 2 -45 4 -27 2 18 2 45 0 60 -2 15 -4 0 -4 -33z"/>
<path d="M2484 1838 c-5 -7 -9 -32 -10 -55 -1 -40 0 -43 25 -43 25 0 26 2 26
52 0 41 -4 53 -17 56 -9 2 -20 -3 -24 -10z"/>
<path d="M3075 1840 c-4 -6 -11 -8 -16 -5 -5 3 -6 -2 -2 -11 5 -13 3 -15 -8
-9 -8 4 -11 4 -6 0 4 -5 -1 -18 -10 -29 -17 -20 -17 -20 0 -7 20 16 61 71 53
71 -3 0 -8 -5 -11 -10z"/>
<path d="M1930 1806 c0 -2 8 -10 18 -17 15 -13 16 -12 3 4 -13 16 -21 21 -21
13z"/>
<path d="M2920 1789 c0 -5 5 -7 10 -4 6 3 10 8 10 11 0 2 -4 4 -10 4 -5 0 -10
-5 -10 -11z"/>
<path d="M1970 1770 c0 -5 5 -10 11 -10 5 0 7 5 4 10 -3 6 -8 10 -11 10 -2 0
-4 -4 -4 -10z"/>
<path d="M3000 1771 c0 -8 -7 -11 -17 -6 -15 5 -16 4 -5 -6 9 -10 15 -10 24
-1 6 6 9 15 5 19 -4 3 -7 1 -7 -6z"/>
<path d="M2065 1761 c-3 -5 -2 -12 3 -15 5 -3 9 1 9 9 0 17 -3 19 -12 6z"/>
<path d="M2921 1763 c-2 -20 16 -24 30 -5 13 15 12 16 -3 4 -13 -10 -17 -10
-21 0 -4 9 -6 9 -6 1z"/>
<path d="M2042 1728 c-9 -9 -7 -17 10 -35 12 -13 26 -23 31 -23 5 0 -2 9 -17
21 -21 17 -24 24 -15 35 14 17 8 19 -9 2z"/>
<path d="M2913 1695 c0 -8 4 -12 9 -9 5 3 6 10 3 15 -9 13 -12 11 -12 -6z"/>
<path d="M2820 1670 c0 -5 5 -10 11 -10 5 0 7 5 4 10 -3 6 -8 10 -11 10 -2 0
-4 -4 -4 -10z"/>
<path d="M2115 1651 c-3 -5 -1 -12 5 -16 5 -3 10 1 10 9 0 18 -6 21 -15 7z"/>
<path d="M2847 1646 c-4 -10 -1 -13 8 -9 8 3 12 9 9 14 -7 12 -11 11 -17 -5z"/>
<path d="M2196 1633 c-6 -14 -5 -15 5 -6 7 7 10 15 7 18 -3 3 -9 -2 -12 -12z"/>
<path d="M2160 1613 c0 -6 8 -17 18 -24 16 -13 16 -13 2 6 -8 11 -16 22 -17
24 -2 2 -3 0 -3 -6z"/>
<path d="M2207 1599 c7 -7 15 -10 18 -7 3 3 -2 9 -12 12 -14 6 -15 5 -6 -5z"/>
<path d="M2250 1549 c0 -5 -4 -7 -10 -4 -23 14 -8 -5 19 -25 19 -13 32 -17 36
-10 4 6 3 10 -2 9 -18 -4 -41 13 -36 27 3 8 2 14 -1 14 -3 0 -6 -5 -6 -11z"/>
<path d="M2723 1544 c4 -4 1 -14 -6 -23 -11 -14 -10 -15 8 -1 11 8 21 15 23
16 2 1 -5 5 -15 8 -9 4 -14 4 -10 0z"/>
<path d="M2530 1440 c-9 -6 -10 -10 -3 -10 6 0 15 5 18 10 8 12 4 12 -15 0z"/>
<path d="M2470 1430 c-9 -6 -10 -10 -3 -10 6 0 15 5 18 10 8 12 4 12 -15 0z"/>
<path d="M2570 1409 c0 -5 5 -7 10 -4 6 3 10 8 10 11 0 2 -4 4 -10 4 -5 0 -10
-5 -10 -11z"/>
<path d="M2465 1391 c-3 -5 -2 -12 3 -15 5 -3 9 1 9 9 0 17 -3 19 -12 6z"/>
</g>
</svg>
